HIERARCHY
ROOT pelvis
{
  OFFSET 0 100 0
  CHANNELS 6 Xposition Yposition Zposition Zrotation Xrotation Yrotation
  JOINT pelvis_right_femur
  {
    OFFSET -10.78128 -3.44521 -0.5502486
    CHANNELS 3 Zrotation Xrotation Yrotation
    JOINT right_femur_tibia
    {
      OFFSET -0.8047443 -44.0398 -0.1307829
      CHANNELS 3 Zrotation Xrotation Yrotation
      JOINT right_tibia_foot
      {
        OFFSET 3.006224 -47.83518 -5
        CHANNELS 3 Zrotation Xrotation Yrotation
        End Site
        {
          OFFSET 0 -5 15
        }
      }
    }
  }
  JOINT pelvis_left_femur
  {
    OFFSET 10.78128 -3.44521 -0.5502486
    CHANNELS 3 Zrotation Xrotation Yrotation
    JOINT left_femur_tibia
    {
      OFFSET 0.8047443 -44.0398 -0.1307829
      CHANNELS 3 Zrotation Xrotation Yrotation
      JOINT left_tibia_foot
      {
        OFFSET -4.370144 -48.10324 -4.275266
        CHANNELS 3 Zrotation Xrotation Yrotation
        End Site
        {
          OFFSET 0 -5 15
        }
      }
    }
  }
  JOINT pelvis_spine1
  {
    OFFSET 0 6.468898 -3.129235
    CHANNELS 3 Zrotation Xrotation Yrotation
    JOINT spine1
    {
      OFFSET 0 23.15396 4.99043
      CHANNELS 3 Zrotation Xrotation Yrotation
      JOINT spine2
      {
        OFFSET 0 20.79997 -5.064912
        CHANNELS 3 Zrotation Xrotation Yrotation
        JOINT neck
        {
          OFFSET 0 14.38658 9.616178
          CHANNELS 3 Zrotation Xrotation Yrotation
          End Site
          {
            OFFSET 0 20 0
          }
        }
      }
      JOINT right_manubrium
      {
        OFFSET -5.722621 16.35077 3.967754
        CHANNELS 3 Zrotation Xrotation Yrotation
        JOINT right_clavicle
        {
          OFFSET -13.16364 1.694482 -4.693211
          CHANNELS 3 Zrotation Xrotation Yrotation
          JOINT right_humerus
          {
            OFFSET -28.5034 -0.3100689 -2.792744
            CHANNELS 3 Zrotation Xrotation Yrotation
            JOINT right_radius
            {
              OFFSET -25.15693 0.02248979 -1.271978
              CHANNELS 3 Zrotation Xrotation Yrotation
              End Site
              {
                OFFSET -15 0 0
              }
            }
          }
        }
      }
      JOINT left_manubrium
      {
        OFFSET 5.722621 16.35077 3.967754
        CHANNELS 3 Zrotation Xrotation Yrotation
        JOINT left_clavicle
        {
          OFFSET 13.16364 1.694482 -4.693211
          CHANNELS 3 Zrotation Xrotation Yrotation
          JOINT left_humerus
          {
            OFFSET 29.39168 -1.063119 -2.237045
            CHANNELS 3 Zrotation Xrotation Yrotation
            JOINT left_radius
            {
              OFFSET 24.59957 -0.9528479 0.9047498
              CHANNELS 3 Zrotation Xrotation Yrotation
              End Site
              {
                OFFSET 15 -0 -0
              }
            }
          }
        }
      }
    }
  }
}
MOTION
Frames: 7
Frame Time: 0.0416666666667
0 103.5113 0 2.310323 -1.921152 0.08634642 1.443288 -11.52468 8.138827 -0 36.76997 -0 -3.989795 -16.60664 -3.345221 -7.830333 9.185594 -23.12355 -0 4.04792 -0 7.978055 -16.52661 26.35701 -2.71735 -3.337539 5.094579 2.936138 9.267689 -7.38048 1.273541 22.07096 6.391068 2.213115 -27.03927 10.16075 5.598064 -19.60875 10.6835 85.63096 34.9678 -19.03764 -0 0 15.44063 -5.54422 6.195793 3.881831 5.649367 -20.43988 -1.018452 -95.8752 26.8616 25.12198 0 0 -13.35574 10.72455 16.78237 2.269051
0.2729801 103.4688 1.211118 1.571517 -1.737277 0.03750148 2.447551 -13.96914 8.771438 -0 38.02642 -0 -5.079283 -17.65968 -4.091862 -7.407584 10.65414 -23.63282 -0 5.012748 -0 7.389519 -17.37432 26.656 -2.792548 -3.38081 5.18859 2.839363 9.223531 -7.262301 1.276197 22.20503 6.30216 2.149588 -26.87087 10.09249 5.570858 -19.68182 10.62261 85.36774 35.01089 -18.6074 -0 0 15.67788 -5.719842 6.12502 4.009361 5.554603 -20.34012 -0.9849686 -96.04863 27.0216 25.40353 0 0 -12.8913 10.56721 16.9486 2.427255
0.5859259 103.2641 3.08496 1.106693 0.2158724 0.1310419 3.620526 -19.94243 7.768249 -0 32.06214 -0 -4.877828 -13.62795 -2.88732 -7.247378 11.16476 -21.97753 -0 4.660264 -0 7.533067 -19.08181 25.08028 -2.410798 -3.046567 4.786 3.293048 9.724551 -8.011129 1.097674 21.44941 6.657339 2.581092 -27.30438 9.826887 5.616869 -19.27771 11.07975 87.00593 34.47413 -21.14891 -0 0 14.12138 -5.955351 6.638328 3.967903 5.924482 -21.19846 -1.453286 -94.78039 26.32568 23.70182 0 0 -15.88931 10.2523 15.24866 2.965267
0.9007258 102.9055 5.366953 0.7248019 1.238378 0.363997 4.347015 -23.34593 7.183754 -0 28.67654 -0 -5.042979 -11.2811 -2.39323 -7.031201 11.70685 -21.00514 -0 4.834577 -0 6.841485 -20.31686 23.8857 -2.275092 -2.918652 4.636387 3.459482 9.93419 -8.316699 1.009763 21.16798 6.772952 2.748549 -27.40463 9.649321 5.608837 -19.11304 11.25602 87.67444 34.21086 -22.16189 -0 0 13.48209 -6.191795 6.838336 4.025513 6.049681 -21.58007 -1.6719 -94.25886 26.11541 23.01604 0 0 -17.10993 9.977868 14.51757 3.36028
1.192307 102.4845 8.009215 0.1473787 2.003257 0.690073 5.233649 -26.32224 7.00841 -0 26.60886 -0 -5.526815 -9.833605 -2.327764 -6.65175 12.5641 -20.39096 -0 5.611226 -0 5.397567 -21.50759 22.69393 -2.092899 -2.779555 4.399921 3.712002 10.16129 -8.738263 0.9119651 20.79158 6.947789 2.958117 -27.63074 9.505845 5.593398 -18.88033 11.46173 88.59758 33.86033 -23.57504 -0 0 12.62265 -6.300922 7.053879 3.979621 6.252345 -22.08538 -1.933219 -93.60575 25.85822 22.0901 0 0 -18.76659 9.760321 13.65123 3.721687
1.453754 102.0561 10.97966 -0.5167993 2.639967 1.086404 6.193433 -28.85619 7.104055 -0 25.31076 -0 -6.06759 -8.893889 -2.433068 -6.195973 13.42986 -19.95266 -0 6.778754 -0 3.575035 -22.44516 21.43934 -1.975191 -2.685214 4.242179 3.875275 10.32618 -9.032625 0.8344608 20.54319 7.055645 3.101028 -27.73997 9.365705 5.567708 -18.7154 11.60144 89.24632 33.59042 -24.54967 -0 0 12.01582 -6.474375 7.211773 3.997632 6.380152 -22.45846 -2.133893 -93.13885 25.7148 21.43886 0 0 -19.92627 9.521573 13.02125 4.079051
1.69002 101.6581 14.28951 -1.244841 3.240855 1.535846 7.241728 -31.16305 7.349763 -0 24.28015 -0 -6.616715 -8.136409 -2.548274 -5.694089 14.19807 -19.51575 -0 8.385205 -0 1.653816 -23.01181 20.06513 -1.876083 -2.610069 4.101652 4.017191 10.46858 -9.295091 0.7638052 20.33369 7.145974 3.222329 -27.82823 9.23597 5.537693 -18.56864 11.71801 89.83015 33.33416 -25.42092 -0 0 11.4775 -6.64258 7.34045 4.016718 6.489908 -22.79907 -2.319006 -92.73861 25.62386 20.87313 0 0 -20.948 9.279022 12.47464 4.438308
